# MagicaVoxel @ Ephtracy

# group
o 

# material
mtllib bot.mtl
usemtl palette

# normals
vn -1 0 0
vn 1 0 0
vn 0 0 1
vn 0 0 -1
vn 0 -1 0
vn 0 1 0

# texcoords
vt 0.0332031 0.5
vt 0.841797 0.5
vt 0.951172 0.5
vt 0.994141 0.5

# verts
v -1.4 0 0
v -1.4 0 -0.1
v -1.4 0.1 0
v -1.4 0.1 -0.1
v -1.2 0.1 0
v -1.2 0.1 -0.1
v -1.2 0.2 0
v -1.2 0.2 -0.1
v -1 0.2 0
v -1 0.2 -0.1
v -1 0.3 0
v -1 0.3 -0.1
v -0.9 4.1 0
v -0.9 4.1 -0.1
v -0.9 5 0
v -0.9 5 -0.1
v -0.8 0.3 0
v -0.8 0.3 -0.1
v -0.8 0.4 0
v -0.8 0.4 -0.1
v -0.8 3.1 0
v -0.8 3.1 -0.1
v -0.8 4.1 0
v -0.8 4.1 -0.1
v -0.5 2.4 0
v -0.5 2.4 -0.1
v -0.5 3.1 0
v -0.5 3.1 -0.1
v -0.4 1.6 0
v -0.4 1.6 -0.1
v -0.4 2.4 0
v -0.4 2.4 -0.1
v -0.4 5.6 0
v -0.4 5.6 -0.1
v -0.4 6 0
v -0.4 6 -0.1
v -0.3 0.4 0
v -0.3 0.4 -0.1
v -0.3 1.6 0
v -0.3 1.6 -0.1
v -0.3 5 0
v -0.3 5 -0.1
v -0.3 5.6 0
v -0.3 5.6 -0.1
v 0.3 0.4 0
v 0.3 0.4 -0.1
v 0.3 1.6 0
v 0.3 1.6 -0.1
v 0.3 5 0
v 0.3 5 -0.1
v 0.3 5.6 0
v 0.3 5.6 -0.1
v 0.4 1.6 0
v 0.4 1.6 -0.1
v 0.4 2.4 0
v 0.4 2.4 -0.1
v 0.4 5.6 0
v 0.4 5.6 -0.1
v 0.4 6 0
v 0.4 6 -0.1
v 0.5 2.4 0
v 0.5 2.4 -0.1
v 0.5 3.1 0
v 0.5 3.1 -0.1
v 0.8 0.3 0
v 0.8 0.3 -0.1
v 0.8 0.4 0
v 0.8 0.4 -0.1
v 0.8 3.1 0
v 0.8 3.1 -0.1
v 0.8 4.1 0
v 0.8 4.1 -0.1
v 0.9 4.1 0
v 0.9 4.1 -0.1
v 0.9 5 0
v 0.9 5 -0.1
v 1 0.2 0
v 1 0.2 -0.1
v 1 0.3 0
v 1 0.3 -0.1
v 1.2 0.1 0
v 1.2 0.1 -0.1
v 1.2 0.2 0
v 1.2 0.2 -0.1
v 1.4 0 0
v 1.4 0 -0.1
v 1.4 0.1 0
v 1.4 0.1 -0.1
v -1.4 0 0
v -1.4 0.1 0
v -1.2 0.1 0
v -1.2 0.2 0
v -1 0.2 0
v -1 0.3 0
v -0.9 4.1 0
v -0.9 5 0
v -0.8 0.3 0
v -0.8 0.4 0
v -0.8 3.1 0
v -0.8 4.1 0
v -0.8 4.9 0
v -0.7 3.2 0
v -0.7 4.1 0
v -0.5 2.4 0
v -0.5 3.1 0
v -0.4 1.6 0
v -0.4 2.4 0
v -0.4 3.2 0
v -0.4 5.6 0
v -0.4 6 0
v -0.3 0.4 0
v -0.3 1.6 0
v -0.3 1.7 0
v -0.3 2.4 0
v -0.3 5 0
v -0.3 5.6 0
v -0.3 5.7 0
v -0.3 5.9 0
v -0.2 5.1 0
v -0.2 5.5 0
v 0.2 5.1 0
v 0.2 5.5 0
v 0.3 0.4 0
v 0.3 1.6 0
v 0.3 1.7 0
v 0.3 2.5 0
v 0.3 5 0
v 0.3 5.6 0
v 0.3 5.7 0
v 0.3 5.9 0
v 0.4 1.6 0
v 0.4 2.4 0
v 0.4 2.5 0
v 0.4 3.2 0
v 0.4 5.6 0
v 0.4 6 0
v 0.5 2.4 0
v 0.5 3.1 0
v 0.7 3.2 0
v 0.7 4.2 0
v 0.8 0.3 0
v 0.8 0.4 0
v 0.8 3.1 0
v 0.8 4.1 0
v 0.8 4.2 0
v 0.8 4.9 0
v 0.9 4.1 0
v 0.9 5 0
v 1 0.2 0
v 1 0.3 0
v 1.2 0.1 0
v 1.2 0.2 0
v 1.4 0 0
v 1.4 0.1 0
v -1.4 0 -0.1
v -1.4 0.1 -0.1
v -1.2 0.1 -0.1
v -1.2 0.2 -0.1
v -1 0.2 -0.1
v -1 0.3 -0.1
v -0.9 4.1 -0.1
v -0.9 5 -0.1
v -0.8 0.3 -0.1
v -0.8 0.4 -0.1
v -0.8 3.1 -0.1
v -0.8 4.1 -0.1
v -0.8 4.9 -0.1
v -0.7 3.2 -0.1
v -0.7 4.1 -0.1
v -0.5 2.4 -0.1
v -0.5 3.1 -0.1
v -0.4 1.6 -0.1
v -0.4 2.4 -0.1
v -0.4 3.2 -0.1
v -0.4 5.6 -0.1
v -0.4 6 -0.1
v -0.3 0.4 -0.1
v -0.3 1.6 -0.1
v -0.3 1.7 -0.1
v -0.3 2.4 -0.1
v -0.3 5 -0.1
v -0.3 5.6 -0.1
v -0.3 5.7 -0.1
v -0.3 5.9 -0.1
v -0.2 5.1 -0.1
v -0.2 5.5 -0.1
v 0.2 5.1 -0.1
v 0.2 5.5 -0.1
v 0.3 0.4 -0.1
v 0.3 1.6 -0.1
v 0.3 1.7 -0.1
v 0.3 2.5 -0.1
v 0.3 5 -0.1
v 0.3 5.6 -0.1
v 0.3 5.7 -0.1
v 0.3 5.9 -0.1
v 0.4 1.6 -0.1
v 0.4 2.4 -0.1
v 0.4 2.5 -0.1
v 0.4 3.2 -0.1
v 0.4 5.6 -0.1
v 0.4 6 -0.1
v 0.5 2.4 -0.1
v 0.5 3.1 -0.1
v 0.7 3.2 -0.1
v 0.7 4.2 -0.1
v 0.8 0.3 -0.1
v 0.8 0.4 -0.1
v 0.8 3.1 -0.1
v 0.8 4.1 -0.1
v 0.8 4.2 -0.1
v 0.8 4.9 -0.1
v 0.9 4.1 -0.1
v 0.9 5 -0.1
v 1 0.2 -0.1
v 1 0.3 -0.1
v 1.2 0.1 -0.1
v 1.2 0.2 -0.1
v 1.4 0 -0.1
v 1.4 0.1 -0.1
v -1.4 0 0
v 1.4 0 0
v -1.4 0 -0.1
v 1.4 0 -0.1
v -0.4 1.6 0
v -0.3 1.6 0
v 0.3 1.6 0
v 0.4 1.6 0
v -0.4 1.6 -0.1
v -0.3 1.6 -0.1
v 0.3 1.6 -0.1
v 0.4 1.6 -0.1
v -0.5 2.4 0
v -0.4 2.4 0
v 0.4 2.4 0
v 0.5 2.4 0
v -0.5 2.4 -0.1
v -0.4 2.4 -0.1
v 0.4 2.4 -0.1
v 0.5 2.4 -0.1
v -0.8 3.1 0
v -0.5 3.1 0
v 0.5 3.1 0
v 0.8 3.1 0
v -0.8 3.1 -0.1
v -0.5 3.1 -0.1
v 0.5 3.1 -0.1
v 0.8 3.1 -0.1
v -0.9 4.1 0
v -0.8 4.1 0
v 0.8 4.1 0
v 0.9 4.1 0
v -0.9 4.1 -0.1
v -0.8 4.1 -0.1
v 0.8 4.1 -0.1
v 0.9 4.1 -0.1
v -0.4 5.6 0
v -0.3 5.6 0
v 0.3 5.6 0
v 0.4 5.6 0
v -0.4 5.6 -0.1
v -0.3 5.6 -0.1
v 0.3 5.6 -0.1
v 0.4 5.6 -0.1
v -1.4 0.1 0
v -1.2 0.1 0
v 1.2 0.1 0
v 1.4 0.1 0
v -1.4 0.1 -0.1
v -1.2 0.1 -0.1
v 1.2 0.1 -0.1
v 1.4 0.1 -0.1
v -1.2 0.2 0
v -1 0.2 0
v 1 0.2 0
v 1.2 0.2 0
v -1.2 0.2 -0.1
v -1 0.2 -0.1
v 1 0.2 -0.1
v 1.2 0.2 -0.1
v -1 0.3 0
v -0.8 0.3 0
v 0.8 0.3 0
v 1 0.3 0
v -1 0.3 -0.1
v -0.8 0.3 -0.1
v 0.8 0.3 -0.1
v 1 0.3 -0.1
v -0.8 0.4 0
v -0.3 0.4 0
v 0.3 0.4 0
v 0.8 0.4 0
v -0.8 0.4 -0.1
v -0.3 0.4 -0.1
v 0.3 0.4 -0.1
v 0.8 0.4 -0.1
v -0.9 5 0
v -0.3 5 0
v 0.3 5 0
v 0.9 5 0
v -0.9 5 -0.1
v -0.3 5 -0.1
v 0.3 5 -0.1
v 0.9 5 -0.1
v -0.4 6 0
v 0.4 6 0
v -0.4 6 -0.1
v 0.4 6 -0.1

# faces
f 3/4/1 2/4/1 1/4/1
f 4/4/1 2/4/1 3/4/1
f 7/4/1 6/4/1 5/4/1
f 8/4/1 6/4/1 7/4/1
f 11/4/1 10/4/1 9/4/1
f 12/4/1 10/4/1 11/4/1
f 15/4/1 14/4/1 13/4/1
f 16/4/1 14/4/1 15/4/1
f 19/4/1 18/4/1 17/4/1
f 20/4/1 18/4/1 19/4/1
f 23/4/1 22/4/1 21/4/1
f 24/4/1 22/4/1 23/4/1
f 27/4/1 26/4/1 25/4/1
f 28/4/1 26/4/1 27/4/1
f 31/4/1 30/4/1 29/4/1
f 32/4/1 30/4/1 31/4/1
f 35/3/1 34/3/1 33/3/1
f 36/3/1 34/3/1 35/3/1
f 39/4/1 38/4/1 37/4/1
f 40/4/1 38/4/1 39/4/1
f 43/1/1 42/1/1 41/1/1
f 44/1/1 42/1/1 43/1/1
f 45/4/2 46/4/2 47/4/2
f 47/4/2 46/4/2 48/4/2
f 49/1/2 50/1/2 51/1/2
f 51/1/2 50/1/2 52/1/2
f 53/4/2 54/4/2 55/4/2
f 55/4/2 54/4/2 56/4/2
f 57/3/2 58/3/2 59/3/2
f 59/3/2 58/3/2 60/3/2
f 61/4/2 62/4/2 63/4/2
f 63/4/2 62/4/2 64/4/2
f 65/4/2 66/4/2 67/4/2
f 67/4/2 66/4/2 68/4/2
f 69/4/2 70/4/2 71/4/2
f 71/4/2 70/4/2 72/4/2
f 73/4/2 74/4/2 75/4/2
f 75/4/2 74/4/2 76/4/2
f 77/4/2 78/4/2 79/4/2
f 79/4/2 78/4/2 80/4/2
f 81/4/2 82/4/2 83/4/2
f 83/4/2 82/4/2 84/4/2
f 85/4/2 86/4/2 87/4/2
f 87/4/2 86/4/2 88/4/2
f 91/4/3 90/4/3 89/4/3
f 93/4/3 92/4/3 91/4/3
f 97/4/3 94/4/3 93/4/3
f 100/4/3 96/4/3 95/4/3
f 101/4/3 96/4/3 100/4/3
f 102/4/3 100/4/3 99/4/3
f 103/2/3 101/2/3 100/2/3
f 103/4/3 100/4/3 102/4/3
f 105/4/3 102/4/3 99/4/3
f 107/4/3 105/4/3 104/4/3
f 108/2/3 103/2/3 102/2/3
f 108/4/3 102/4/3 105/4/3
f 108/4/3 105/4/3 107/4/3
f 111/4/3 98/4/3 97/4/3
f 112/4/3 107/4/3 106/4/3
f 113/4/3 107/4/3 112/4/3
f 114/2/3 108/2/3 107/2/3
f 114/4/3 107/4/3 113/4/3
f 115/4/3 96/4/3 101/4/3
f 116/3/3 110/3/3 109/3/3
f 117/3/3 110/3/3 116/3/3
f 118/3/3 110/3/3 117/3/3
f 119/1/3 116/1/3 115/1/3
f 120/1/3 116/1/3 119/1/3
f 121/1/3 119/1/3 115/1/3
f 121/2/3 120/2/3 119/2/3
f 122/1/3 116/1/3 120/1/3
f 122/2/3 120/2/3 121/2/3
f 123/4/3 111/4/3 97/4/3
f 123/4/3 113/4/3 112/4/3
f 123/4/3 112/4/3 111/4/3
f 124/4/3 113/4/3 123/4/3
f 125/2/3 114/2/3 113/2/3
f 125/4/3 113/4/3 124/4/3
f 126/2/3 108/2/3 114/2/3
f 126/2/3 114/2/3 125/2/3
f 127/4/3 115/4/3 101/4/3
f 127/1/3 122/1/3 121/1/3
f 127/1/3 121/1/3 115/1/3
f 128/1/3 116/1/3 122/1/3
f 128/1/3 122/1/3 127/1/3
f 128/3/3 117/3/3 116/3/3
f 129/2/3 118/2/3 117/2/3
f 129/3/3 117/3/3 128/3/3
f 130/3/3 110/3/3 118/3/3
f 130/2/3 118/2/3 129/2/3
f 131/4/3 125/4/3 124/4/3
f 131/4/3 126/4/3 125/4/3
f 132/4/3 126/4/3 131/4/3
f 133/2/3 108/2/3 126/2/3
f 133/4/3 126/4/3 132/4/3
f 134/2/3 103/2/3 108/2/3
f 134/2/3 108/2/3 133/2/3
f 135/3/3 130/3/3 129/3/3
f 135/3/3 129/3/3 128/3/3
f 136/3/3 110/3/3 130/3/3
f 136/3/3 130/3/3 135/3/3
f 137/4/3 133/4/3 132/4/3
f 137/4/3 134/4/3 133/4/3
f 138/4/3 134/4/3 137/4/3
f 139/2/3 103/2/3 134/2/3
f 139/4/3 134/4/3 138/4/3
f 140/2/3 101/2/3 103/2/3
f 140/2/3 103/2/3 139/2/3
f 141/4/3 97/4/3 93/4/3
f 141/4/3 123/4/3 97/4/3
f 142/4/3 123/4/3 141/4/3
f 143/4/3 139/4/3 138/4/3
f 143/4/3 140/4/3 139/4/3
f 144/4/3 140/4/3 143/4/3
f 145/2/3 101/2/3 140/2/3
f 145/4/3 140/4/3 144/4/3
f 146/4/3 127/4/3 101/4/3
f 146/2/3 101/2/3 145/2/3
f 147/4/3 146/4/3 145/4/3
f 147/4/3 145/4/3 144/4/3
f 148/4/3 127/4/3 146/4/3
f 148/4/3 146/4/3 147/4/3
f 149/4/3 93/4/3 91/4/3
f 149/4/3 141/4/3 93/4/3
f 150/4/3 141/4/3 149/4/3
f 151/4/3 91/4/3 89/4/3
f 151/4/3 149/4/3 91/4/3
f 152/4/3 149/4/3 151/4/3
f 153/4/3 151/4/3 89/4/3
f 154/4/3 151/4/3 153/4/3
f 155/4/4 156/4/4 157/4/4
f 157/4/4 158/4/4 159/4/4
f 159/4/4 160/4/4 163/4/4
f 161/4/4 162/4/4 166/4/4
f 166/4/4 162/4/4 167/4/4
f 165/4/4 166/4/4 168/4/4
f 166/2/4 167/2/4 169/2/4
f 168/4/4 166/4/4 169/4/4
f 165/4/4 168/4/4 171/4/4
f 170/4/4 171/4/4 173/4/4
f 168/2/4 169/2/4 174/2/4
f 171/4/4 168/4/4 174/4/4
f 173/4/4 171/4/4 174/4/4
f 163/4/4 164/4/4 177/4/4
f 172/4/4 173/4/4 178/4/4
f 178/4/4 173/4/4 179/4/4
f 173/2/4 174/2/4 180/2/4
f 179/4/4 173/4/4 180/4/4
f 167/4/4 162/4/4 181/4/4
f 175/3/4 176/3/4 182/3/4
f 182/3/4 176/3/4 183/3/4
f 183/3/4 176/3/4 184/3/4
f 181/1/4 182/1/4 185/1/4
f 185/1/4 182/1/4 186/1/4
f 181/1/4 185/1/4 187/1/4
f 185/2/4 186/2/4 187/2/4
f 186/1/4 182/1/4 188/1/4
f 187/2/4 186/2/4 188/2/4
f 163/4/4 177/4/4 189/4/4
f 178/4/4 179/4/4 189/4/4
f 177/4/4 178/4/4 189/4/4
f 189/4/4 179/4/4 190/4/4
f 179/2/4 180/2/4 191/2/4
f 190/4/4 179/4/4 191/4/4
f 180/2/4 174/2/4 192/2/4
f 191/2/4 180/2/4 192/2/4
f 167/4/4 181/4/4 193/4/4
f 187/1/4 188/1/4 193/1/4
f 181/1/4 187/1/4 193/1/4
f 188/1/4 182/1/4 194/1/4
f 193/1/4 188/1/4 194/1/4
f 182/3/4 183/3/4 194/3/4
f 183/2/4 184/2/4 195/2/4
f 194/3/4 183/3/4 195/3/4
f 184/3/4 176/3/4 196/3/4
f 195/2/4 184/2/4 196/2/4
f 190/4/4 191/4/4 197/4/4
f 191/4/4 192/4/4 197/4/4
f 197/4/4 192/4/4 198/4/4
f 192/2/4 174/2/4 199/2/4
f 198/4/4 192/4/4 199/4/4
f 174/2/4 169/2/4 200/2/4
f 199/2/4 174/2/4 200/2/4
f 195/3/4 196/3/4 201/3/4
f 194/3/4 195/3/4 201/3/4
f 196/3/4 176/3/4 202/3/4
f 201/3/4 196/3/4 202/3/4
f 198/4/4 199/4/4 203/4/4
f 199/4/4 200/4/4 203/4/4
f 203/4/4 200/4/4 204/4/4
f 200/2/4 169/2/4 205/2/4
f 204/4/4 200/4/4 205/4/4
f 169/2/4 167/2/4 206/2/4
f 205/2/4 169/2/4 206/2/4
f 159/4/4 163/4/4 207/4/4
f 163/4/4 189/4/4 207/4/4
f 207/4/4 189/4/4 208/4/4
f 204/4/4 205/4/4 209/4/4
f 205/4/4 206/4/4 209/4/4
f 209/4/4 206/4/4 210/4/4
f 206/2/4 167/2/4 211/2/4
f 210/4/4 206/4/4 211/4/4
f 167/4/4 193/4/4 212/4/4
f 211/2/4 167/2/4 212/2/4
f 211/4/4 212/4/4 213/4/4
f 210/4/4 211/4/4 213/4/4
f 212/4/4 193/4/4 214/4/4
f 213/4/4 212/4/4 214/4/4
f 157/4/4 159/4/4 215/4/4
f 159/4/4 207/4/4 215/4/4
f 215/4/4 207/4/4 216/4/4
f 155/4/4 157/4/4 217/4/4
f 157/4/4 215/4/4 217/4/4
f 217/4/4 215/4/4 218/4/4
f 155/4/4 217/4/4 219/4/4
f 219/4/4 217/4/4 220/4/4
f 223/4/5 222/4/5 221/4/5
f 224/4/5 222/4/5 223/4/5
f 229/4/5 226/4/5 225/4/5
f 230/4/5 226/4/5 229/4/5
f 231/4/5 228/4/5 227/4/5
f 232/4/5 228/4/5 231/4/5
f 237/4/5 234/4/5 233/4/5
f 238/4/5 234/4/5 237/4/5
f 239/4/5 236/4/5 235/4/5
f 240/4/5 236/4/5 239/4/5
f 245/4/5 242/4/5 241/4/5
f 246/4/5 242/4/5 245/4/5
f 247/4/5 244/4/5 243/4/5
f 248/4/5 244/4/5 247/4/5
f 253/4/5 250/4/5 249/4/5
f 254/4/5 250/4/5 253/4/5
f 255/4/5 252/4/5 251/4/5
f 256/4/5 252/4/5 255/4/5
f 261/3/5 258/3/5 257/3/5
f 262/3/5 258/3/5 261/3/5
f 263/3/5 260/3/5 259/3/5
f 264/3/5 260/3/5 263/3/5
f 265/4/6 266/4/6 269/4/6
f 269/4/6 266/4/6 270/4/6
f 267/4/6 268/4/6 271/4/6
f 271/4/6 268/4/6 272/4/6
f 273/4/6 274/4/6 277/4/6
f 277/4/6 274/4/6 278/4/6
f 275/4/6 276/4/6 279/4/6
f 279/4/6 276/4/6 280/4/6
f 281/4/6 282/4/6 285/4/6
f 285/4/6 282/4/6 286/4/6
f 283/4/6 284/4/6 287/4/6
f 287/4/6 284/4/6 288/4/6
f 289/4/6 290/4/6 293/4/6
f 293/4/6 290/4/6 294/4/6
f 291/4/6 292/4/6 295/4/6
f 295/4/6 292/4/6 296/4/6
f 297/4/6 298/4/6 301/4/6
f 301/4/6 298/4/6 302/4/6
f 299/4/6 300/4/6 303/4/6
f 303/4/6 300/4/6 304/4/6
f 305/3/6 306/3/6 307/3/6
f 307/3/6 306/3/6 308/3/6
